# xmcd
# 
# Track frame offsets:
#     150
#     13910
#     34467
#     46371
#     65844
#     81744
#     104564
#     119149
#     139345
#     161808
#     181397
#     201722
#     211669
#     231485
#     247438
#     263337
#     283834
# 
# Disc length: 3794
# 
# Revision: 1
# Processed by: cddbd v1.5.2PL0 Copyright (c) Steve Scherf et al.
# Submitted via: BonkEnc v1.0.5
# 
DISCID=230ed011
DTITLE=Texas Dukes - Fatherland [CD1]
DYEAR=2008
DGENRE=Country
TTITLE0=Texas Dukes
TTITLE1=Friday Night Shuffle
TTITLE2=Lonestar Waltz
TTITLE3=Pony Ride
TTITLE4=Night Out
TTITLE5=St Louis Swing
TTITLE6=Rum and Cola
TTITLE7=Rodeo Cowgirl
TTITLE8=Reminiscing
TTITLE9=Too Much Beer
TTITLE10=Bobbie Sue
TTITLE11=Lubbock Waltz
TTITLE12=Joke's On Me
TTITLE13=Durango Nights
TTITLE14=Highway Moon
TTITLE15=Cowboy Boogie
TTITLE16=Data track
EXTD=License: http://creativecommons.org/licenses/by-nc-nd/3.0/us/
EXTT0=
EXTT1=
EXTT2=
EXTT3=
EXTT4=
EXTT5=
EXTT6=
EXTT7=
EXTT8=
EXTT9=
EXTT10=
EXTT11=
EXTT12=
EXTT13=
EXTT14=
EXTT15=
EXTT16=
PLAYORDER=
